<mxfile host="Electron" agent="Mozilla/5.0 (Windows NT 10.0; Win64; x64) AppleWebKit/537.36 (KHTML, like Gecko) draw.io/26.2.15 Chrome/134.0.6998.205 Electron/35.2.1 Safari/537.36" version="26.2.15">
  <diagram name="Page-1" id="9auDfsDbPt5u2grf3hRr">
    <mxGraphModel dx="5664" dy="963" grid="1" gridSize="10" guides="1" tooltips="1" connect="1" arrows="1" fold="1" page="1" pageScale="1" pageWidth="850" pageHeight="1100" math="0" shadow="0">
      <root>
        <mxCell id="0" />
        <mxCell id="1" parent="0" />
        <mxCell id="KGJIgQXRHw7foINPDQjM-1" value="&lt;b&gt;Start&lt;/b&gt;" style="whiteSpace=wrap;strokeWidth=2;rounded=1;glass=0;shadow=0;shape=ellipse;perimeter=ellipsePerimeter;html=1;" parent="1" vertex="1">
          <mxGeometry x="489.41" y="10" width="50" height="33" as="geometry" />
        </mxCell>
        <mxCell id="KGJIgQXRHw7foINPDQjM-2" value="Load User, Survey, and Responses" style="whiteSpace=wrap;strokeWidth=2;shape=label;html=1;fixedSize=1;rounded=0;" parent="1" vertex="1">
          <mxGeometry x="432" y="112" width="168" height="33" as="geometry" />
        </mxCell>
        <mxCell id="KGJIgQXRHw7foINPDQjM-3" value="Enter username" style="whiteSpace=wrap;strokeWidth=2;shape=label;html=1;fixedSize=1;rounded=0;" parent="1" vertex="1">
          <mxGeometry x="441" y="200" width="150" height="40" as="geometry" />
        </mxCell>
        <mxCell id="KGJIgQXRHw7foINPDQjM-9" value="" style="curved=1;startArrow=none;endArrow=block;exitX=0.4966250228881836;exitY=1.0121212583599668;entryX=0.502783623062262;entryY=-0.0060605713815400095;" parent="1" source="KGJIgQXRHw7foINPDQjM-1" target="KGJIgQXRHw7foINPDQjM-2" edge="1">
          <mxGeometry relative="1" as="geometry">
            <Array as="points" />
          </mxGeometry>
        </mxCell>
        <mxCell id="KGJIgQXRHw7foINPDQjM-10" value="" style="curved=1;startArrow=none;endArrow=block;exitX=0.502783623062262;exitY=1.0060606869784268;entryX=0.4979420871269412;entryY=-0.012121142763080019;" parent="1" source="KGJIgQXRHw7foINPDQjM-2" target="KGJIgQXRHw7foINPDQjM-3" edge="1">
          <mxGeometry relative="1" as="geometry">
            <Array as="points" />
          </mxGeometry>
        </mxCell>
        <mxCell id="KGJIgQXRHw7foINPDQjM-11" value="" style="curved=1;startArrow=none;endArrow=classic;exitX=0.481;exitY=1.005;html=1;exitDx=0;exitDy=0;entryX=0.5;entryY=0;entryDx=0;entryDy=0;exitPerimeter=0;" parent="1" source="KGJIgQXRHw7foINPDQjM-3" target="H5f7GRGLDmHYRlrWNghL-1" edge="1">
          <mxGeometry relative="1" as="geometry">
            <Array as="points" />
            <mxPoint x="516" y="290" as="targetPoint" />
          </mxGeometry>
        </mxCell>
        <mxCell id="H5f7GRGLDmHYRlrWNghL-8" style="edgeStyle=orthogonalEdgeStyle;rounded=0;orthogonalLoop=1;jettySize=auto;html=1;entryX=0.5;entryY=0;entryDx=0;entryDy=0;" edge="1" parent="1" source="H5f7GRGLDmHYRlrWNghL-1" target="H5f7GRGLDmHYRlrWNghL-2">
          <mxGeometry relative="1" as="geometry">
            <mxPoint x="310" y="310" as="targetPoint" />
          </mxGeometry>
        </mxCell>
        <mxCell id="H5f7GRGLDmHYRlrWNghL-1" value="Is user registered?" style="rhombus;whiteSpace=wrap;html=1;" vertex="1" parent="1">
          <mxGeometry x="474" y="270" width="80" height="80" as="geometry" />
        </mxCell>
        <mxCell id="H5f7GRGLDmHYRlrWNghL-40" style="edgeStyle=orthogonalEdgeStyle;rounded=0;orthogonalLoop=1;jettySize=auto;html=1;entryX=0.5;entryY=0;entryDx=0;entryDy=0;" edge="1" parent="1" source="H5f7GRGLDmHYRlrWNghL-2" target="H5f7GRGLDmHYRlrWNghL-11">
          <mxGeometry relative="1" as="geometry">
            <mxPoint x="330" y="490" as="targetPoint" />
          </mxGeometry>
        </mxCell>
        <mxCell id="H5f7GRGLDmHYRlrWNghL-2" value="Display &quot;Welcome back&quot;" style="rounded=0;whiteSpace=wrap;html=1;" vertex="1" parent="1">
          <mxGeometry x="270" y="330" width="120" height="60" as="geometry" />
        </mxCell>
        <mxCell id="H5f7GRGLDmHYRlrWNghL-35" style="edgeStyle=orthogonalEdgeStyle;rounded=0;orthogonalLoop=1;jettySize=auto;html=1;entryX=0.5;entryY=0;entryDx=0;entryDy=0;" edge="1" parent="1" source="H5f7GRGLDmHYRlrWNghL-4">
          <mxGeometry relative="1" as="geometry">
            <mxPoint x="790" y="430" as="targetPoint" />
            <Array as="points">
              <mxPoint x="790" y="380" />
            </Array>
          </mxGeometry>
        </mxCell>
        <mxCell id="H5f7GRGLDmHYRlrWNghL-4" value="Is the first user?" style="rhombus;whiteSpace=wrap;html=1;" vertex="1" parent="1">
          <mxGeometry x="650" y="340" width="80" height="80" as="geometry" />
        </mxCell>
        <mxCell id="H5f7GRGLDmHYRlrWNghL-6" value="Set user as admin" style="rounded=0;whiteSpace=wrap;html=1;" vertex="1" parent="1">
          <mxGeometry x="530" y="430" width="120" height="60" as="geometry" />
        </mxCell>
        <mxCell id="H5f7GRGLDmHYRlrWNghL-7" value="User is not admin" style="rounded=0;whiteSpace=wrap;html=1;" vertex="1" parent="1">
          <mxGeometry x="720" y="430" width="120" height="60" as="geometry" />
        </mxCell>
        <mxCell id="H5f7GRGLDmHYRlrWNghL-9" style="edgeStyle=orthogonalEdgeStyle;rounded=0;orthogonalLoop=1;jettySize=auto;html=1;entryX=0.5;entryY=0;entryDx=0;entryDy=0;" edge="1" parent="1" source="H5f7GRGLDmHYRlrWNghL-1" target="H5f7GRGLDmHYRlrWNghL-4">
          <mxGeometry relative="1" as="geometry">
            <mxPoint x="670" y="340" as="targetPoint" />
            <Array as="points">
              <mxPoint x="690" y="310" />
            </Array>
          </mxGeometry>
        </mxCell>
        <mxCell id="H5f7GRGLDmHYRlrWNghL-38" style="edgeStyle=orthogonalEdgeStyle;rounded=0;orthogonalLoop=1;jettySize=auto;html=1;entryX=0.5;entryY=0;entryDx=0;entryDy=0;" edge="1" parent="1" source="H5f7GRGLDmHYRlrWNghL-11" target="H5f7GRGLDmHYRlrWNghL-12">
          <mxGeometry relative="1" as="geometry" />
        </mxCell>
        <mxCell id="H5f7GRGLDmHYRlrWNghL-39" style="edgeStyle=orthogonalEdgeStyle;rounded=0;orthogonalLoop=1;jettySize=auto;html=1;entryX=0.5;entryY=0;entryDx=0;entryDy=0;" edge="1" parent="1" source="H5f7GRGLDmHYRlrWNghL-11" target="H5f7GRGLDmHYRlrWNghL-13">
          <mxGeometry relative="1" as="geometry" />
        </mxCell>
        <mxCell id="H5f7GRGLDmHYRlrWNghL-11" value="Is user the admin?" style="rhombus;whiteSpace=wrap;html=1;" vertex="1" parent="1">
          <mxGeometry x="290" y="510" width="80" height="80" as="geometry" />
        </mxCell>
        <mxCell id="H5f7GRGLDmHYRlrWNghL-36" value="" style="edgeStyle=orthogonalEdgeStyle;rounded=0;orthogonalLoop=1;jettySize=auto;html=1;" edge="1" parent="1" source="H5f7GRGLDmHYRlrWNghL-12" target="H5f7GRGLDmHYRlrWNghL-14">
          <mxGeometry relative="1" as="geometry" />
        </mxCell>
        <mxCell id="H5f7GRGLDmHYRlrWNghL-12" value="Display admin menu" style="shape=parallelogram;perimeter=parallelogramPerimeter;whiteSpace=wrap;html=1;fixedSize=1;" vertex="1" parent="1">
          <mxGeometry x="-10" y="600" width="140" height="60" as="geometry" />
        </mxCell>
        <mxCell id="H5f7GRGLDmHYRlrWNghL-37" style="edgeStyle=orthogonalEdgeStyle;rounded=0;orthogonalLoop=1;jettySize=auto;html=1;entryX=0.5;entryY=0;entryDx=0;entryDy=0;" edge="1" parent="1" source="H5f7GRGLDmHYRlrWNghL-13" target="H5f7GRGLDmHYRlrWNghL-15">
          <mxGeometry relative="1" as="geometry" />
        </mxCell>
        <mxCell id="H5f7GRGLDmHYRlrWNghL-13" value="Display non-admin menu" style="shape=parallelogram;perimeter=parallelogramPerimeter;whiteSpace=wrap;html=1;fixedSize=1;" vertex="1" parent="1">
          <mxGeometry x="460" y="600" width="160" height="60" as="geometry" />
        </mxCell>
        <mxCell id="H5f7GRGLDmHYRlrWNghL-27" style="edgeStyle=orthogonalEdgeStyle;rounded=0;orthogonalLoop=1;jettySize=auto;html=1;entryX=0.5;entryY=0;entryDx=0;entryDy=0;" edge="1" parent="1" source="H5f7GRGLDmHYRlrWNghL-14" target="H5f7GRGLDmHYRlrWNghL-16">
          <mxGeometry relative="1" as="geometry" />
        </mxCell>
        <mxCell id="H5f7GRGLDmHYRlrWNghL-28" style="edgeStyle=orthogonalEdgeStyle;rounded=0;orthogonalLoop=1;jettySize=auto;html=1;entryX=0.5;entryY=0;entryDx=0;entryDy=0;" edge="1" parent="1" source="H5f7GRGLDmHYRlrWNghL-14" target="H5f7GRGLDmHYRlrWNghL-17">
          <mxGeometry relative="1" as="geometry" />
        </mxCell>
        <mxCell id="H5f7GRGLDmHYRlrWNghL-29" value="" style="edgeStyle=orthogonalEdgeStyle;rounded=0;orthogonalLoop=1;jettySize=auto;html=1;" edge="1" parent="1">
          <mxGeometry relative="1" as="geometry">
            <mxPoint x="59.57000000000023" y="784.166666666667" as="sourcePoint" />
            <mxPoint x="59.57000000000023" y="890" as="targetPoint" />
            <Array as="points">
              <mxPoint x="59.57" y="820" />
              <mxPoint x="59.57" y="820" />
            </Array>
          </mxGeometry>
        </mxCell>
        <mxCell id="H5f7GRGLDmHYRlrWNghL-14" value="Enter choice" style="rounded=0;whiteSpace=wrap;html=1;shape=rhombus;perimeter=rhombusPerimeter;" vertex="1" parent="1">
          <mxGeometry y="720" width="120" height="70" as="geometry" />
        </mxCell>
        <mxCell id="H5f7GRGLDmHYRlrWNghL-31" style="edgeStyle=orthogonalEdgeStyle;rounded=0;orthogonalLoop=1;jettySize=auto;html=1;entryX=0.5;entryY=0;entryDx=0;entryDy=0;" edge="1" parent="1" source="H5f7GRGLDmHYRlrWNghL-15" target="H5f7GRGLDmHYRlrWNghL-21">
          <mxGeometry relative="1" as="geometry" />
        </mxCell>
        <mxCell id="H5f7GRGLDmHYRlrWNghL-32" style="edgeStyle=orthogonalEdgeStyle;rounded=0;orthogonalLoop=1;jettySize=auto;html=1;entryX=0.431;entryY=-0.026;entryDx=0;entryDy=0;entryPerimeter=0;" edge="1" parent="1" source="H5f7GRGLDmHYRlrWNghL-15" target="H5f7GRGLDmHYRlrWNghL-22">
          <mxGeometry relative="1" as="geometry">
            <Array as="points">
              <mxPoint x="541" y="820" />
              <mxPoint x="541" y="820" />
            </Array>
          </mxGeometry>
        </mxCell>
        <mxCell id="H5f7GRGLDmHYRlrWNghL-33" style="edgeStyle=orthogonalEdgeStyle;rounded=0;orthogonalLoop=1;jettySize=auto;html=1;entryX=0.5;entryY=0;entryDx=0;entryDy=0;" edge="1" parent="1" source="H5f7GRGLDmHYRlrWNghL-15" target="H5f7GRGLDmHYRlrWNghL-23">
          <mxGeometry relative="1" as="geometry" />
        </mxCell>
        <mxCell id="H5f7GRGLDmHYRlrWNghL-15" value="Enter choice" style="rounded=0;whiteSpace=wrap;html=1;shape=rhombus;perimeter=rhombusPerimeter;" vertex="1" parent="1">
          <mxGeometry x="480" y="730" width="120" height="60" as="geometry" />
        </mxCell>
        <mxCell id="H5f7GRGLDmHYRlrWNghL-47" style="edgeStyle=orthogonalEdgeStyle;rounded=0;orthogonalLoop=1;jettySize=auto;html=1;" edge="1" parent="1" source="H5f7GRGLDmHYRlrWNghL-16">
          <mxGeometry relative="1" as="geometry">
            <mxPoint x="-240" y="1000" as="targetPoint" />
          </mxGeometry>
        </mxCell>
        <mxCell id="H5f7GRGLDmHYRlrWNghL-16" value="Create Survey" style="rounded=0;whiteSpace=wrap;html=1;" vertex="1" parent="1">
          <mxGeometry x="-300" y="890" width="120" height="60" as="geometry" />
        </mxCell>
        <mxCell id="H5f7GRGLDmHYRlrWNghL-51" style="edgeStyle=orthogonalEdgeStyle;rounded=0;orthogonalLoop=1;jettySize=auto;html=1;entryX=0.5;entryY=0;entryDx=0;entryDy=0;" edge="1" parent="1" source="H5f7GRGLDmHYRlrWNghL-17">
          <mxGeometry relative="1" as="geometry">
            <mxPoint x="-80" y="1000" as="targetPoint" />
          </mxGeometry>
        </mxCell>
        <mxCell id="H5f7GRGLDmHYRlrWNghL-17" value="Take Survey" style="rounded=0;whiteSpace=wrap;html=1;" vertex="1" parent="1">
          <mxGeometry x="-140" y="890" width="120" height="60" as="geometry" />
        </mxCell>
        <mxCell id="H5f7GRGLDmHYRlrWNghL-52" style="edgeStyle=orthogonalEdgeStyle;rounded=0;orthogonalLoop=1;jettySize=auto;html=1;entryX=0.5;entryY=0;entryDx=0;entryDy=0;" edge="1" parent="1" source="H5f7GRGLDmHYRlrWNghL-18">
          <mxGeometry relative="1" as="geometry">
            <mxPoint x="70" y="1000" as="targetPoint" />
          </mxGeometry>
        </mxCell>
        <mxCell id="H5f7GRGLDmHYRlrWNghL-18" value="View Results" style="rounded=0;whiteSpace=wrap;html=1;" vertex="1" parent="1">
          <mxGeometry x="10" y="890" width="120" height="60" as="geometry" />
        </mxCell>
        <mxCell id="H5f7GRGLDmHYRlrWNghL-25" style="edgeStyle=orthogonalEdgeStyle;rounded=0;orthogonalLoop=1;jettySize=auto;html=1;entryX=0;entryY=0.5;entryDx=0;entryDy=0;exitX=0.5;exitY=1;exitDx=0;exitDy=0;" edge="1" parent="1" source="H5f7GRGLDmHYRlrWNghL-19" target="H5f7GRGLDmHYRlrWNghL-24">
          <mxGeometry relative="1" as="geometry" />
        </mxCell>
        <mxCell id="H5f7GRGLDmHYRlrWNghL-19" value="Exit" style="rounded=0;whiteSpace=wrap;html=1;" vertex="1" parent="1">
          <mxGeometry x="160" y="880" width="120" height="60" as="geometry" />
        </mxCell>
        <mxCell id="H5f7GRGLDmHYRlrWNghL-56" value="" style="edgeStyle=orthogonalEdgeStyle;rounded=0;orthogonalLoop=1;jettySize=auto;html=1;" edge="1" parent="1" source="H5f7GRGLDmHYRlrWNghL-21" target="H5f7GRGLDmHYRlrWNghL-54">
          <mxGeometry relative="1" as="geometry" />
        </mxCell>
        <mxCell id="H5f7GRGLDmHYRlrWNghL-21" value="Take Survey" style="rounded=0;whiteSpace=wrap;html=1;" vertex="1" parent="1">
          <mxGeometry x="350" y="880" width="120" height="60" as="geometry" />
        </mxCell>
        <mxCell id="H5f7GRGLDmHYRlrWNghL-57" value="" style="edgeStyle=orthogonalEdgeStyle;rounded=0;orthogonalLoop=1;jettySize=auto;html=1;" edge="1" parent="1" source="H5f7GRGLDmHYRlrWNghL-22" target="H5f7GRGLDmHYRlrWNghL-55">
          <mxGeometry relative="1" as="geometry" />
        </mxCell>
        <mxCell id="H5f7GRGLDmHYRlrWNghL-22" value="View Results" style="rounded=0;whiteSpace=wrap;html=1;" vertex="1" parent="1">
          <mxGeometry x="490" y="880" width="120" height="60" as="geometry" />
        </mxCell>
        <mxCell id="H5f7GRGLDmHYRlrWNghL-26" style="edgeStyle=orthogonalEdgeStyle;rounded=0;orthogonalLoop=1;jettySize=auto;html=1;entryX=1;entryY=0.5;entryDx=0;entryDy=0;" edge="1" parent="1" source="H5f7GRGLDmHYRlrWNghL-23" target="H5f7GRGLDmHYRlrWNghL-24">
          <mxGeometry relative="1" as="geometry">
            <Array as="points">
              <mxPoint x="690" y="1037" />
            </Array>
          </mxGeometry>
        </mxCell>
        <mxCell id="H5f7GRGLDmHYRlrWNghL-23" value="Exit" style="rounded=0;whiteSpace=wrap;html=1;" vertex="1" parent="1">
          <mxGeometry x="630" y="880" width="120" height="60" as="geometry" />
        </mxCell>
        <mxCell id="H5f7GRGLDmHYRlrWNghL-24" value="&lt;b&gt;End&lt;/b&gt;" style="whiteSpace=wrap;strokeWidth=2;rounded=1;glass=0;shadow=0;shape=ellipse;perimeter=ellipsePerimeter;html=1;" vertex="1" parent="1">
          <mxGeometry x="290" y="1020" width="50" height="33" as="geometry" />
        </mxCell>
        <mxCell id="H5f7GRGLDmHYRlrWNghL-30" style="edgeStyle=orthogonalEdgeStyle;rounded=0;orthogonalLoop=1;jettySize=auto;html=1;exitX=1;exitY=0.5;exitDx=0;exitDy=0;entryX=0.627;entryY=0.04;entryDx=0;entryDy=0;entryPerimeter=0;" edge="1" parent="1" source="H5f7GRGLDmHYRlrWNghL-14" target="H5f7GRGLDmHYRlrWNghL-19">
          <mxGeometry relative="1" as="geometry" />
        </mxCell>
        <mxCell id="H5f7GRGLDmHYRlrWNghL-34" style="edgeStyle=orthogonalEdgeStyle;rounded=0;orthogonalLoop=1;jettySize=auto;html=1;entryX=0.393;entryY=-0.01;entryDx=0;entryDy=0;entryPerimeter=0;" edge="1" parent="1" source="H5f7GRGLDmHYRlrWNghL-4" target="H5f7GRGLDmHYRlrWNghL-6">
          <mxGeometry relative="1" as="geometry">
            <Array as="points">
              <mxPoint x="577" y="380" />
            </Array>
          </mxGeometry>
        </mxCell>
        <mxCell id="H5f7GRGLDmHYRlrWNghL-46" style="edgeStyle=orthogonalEdgeStyle;rounded=0;orthogonalLoop=1;jettySize=auto;html=1;exitX=0;exitY=0.5;exitDx=0;exitDy=0;exitPerimeter=0;endArrow=none;startFill=0;" edge="1" parent="1" source="H5f7GRGLDmHYRlrWNghL-45">
          <mxGeometry relative="1" as="geometry">
            <mxPoint x="330" y="498.43000000000006" as="targetPoint" />
            <Array as="points">
              <mxPoint x="690" y="510" />
              <mxPoint x="330" y="510" />
            </Array>
          </mxGeometry>
        </mxCell>
        <mxCell id="H5f7GRGLDmHYRlrWNghL-45" value="" style="strokeWidth=2;html=1;shape=mxgraph.flowchart.annotation_2;align=left;labelPosition=right;pointerEvents=1;rotation=-90;" vertex="1" parent="1">
          <mxGeometry x="681.56" y="448.43" width="16.88" height="100" as="geometry" />
        </mxCell>
        <mxCell id="H5f7GRGLDmHYRlrWNghL-53" value="&lt;b&gt;A&lt;/b&gt;" style="ellipse;whiteSpace=wrap;html=1;aspect=fixed;" vertex="1" parent="1">
          <mxGeometry x="-265" y="1000" width="50" height="50" as="geometry" />
        </mxCell>
        <mxCell id="H5f7GRGLDmHYRlrWNghL-54" value="&lt;b&gt;B&lt;/b&gt;" style="ellipse;whiteSpace=wrap;html=1;aspect=fixed;" vertex="1" parent="1">
          <mxGeometry x="385" y="965" width="50" height="50" as="geometry" />
        </mxCell>
        <mxCell id="H5f7GRGLDmHYRlrWNghL-55" value="&lt;b&gt;C&lt;/b&gt;" style="ellipse;whiteSpace=wrap;html=1;aspect=fixed;" vertex="1" parent="1">
          <mxGeometry x="525" y="965" width="50" height="50" as="geometry" />
        </mxCell>
        <mxCell id="H5f7GRGLDmHYRlrWNghL-58" value="&lt;b&gt;B&lt;/b&gt;" style="ellipse;whiteSpace=wrap;html=1;aspect=fixed;" vertex="1" parent="1">
          <mxGeometry x="-105" y="1000" width="50" height="50" as="geometry" />
        </mxCell>
        <mxCell id="H5f7GRGLDmHYRlrWNghL-60" value="&lt;b&gt;C&lt;/b&gt;" style="ellipse;whiteSpace=wrap;html=1;aspect=fixed;" vertex="1" parent="1">
          <mxGeometry x="45" y="1000" width="50" height="50" as="geometry" />
        </mxCell>
        <mxCell id="H5f7GRGLDmHYRlrWNghL-64" style="edgeStyle=orthogonalEdgeStyle;rounded=0;orthogonalLoop=1;jettySize=auto;html=1;entryX=0.5;entryY=0;entryDx=0;entryDy=0;" edge="1" parent="1" source="H5f7GRGLDmHYRlrWNghL-62" target="H5f7GRGLDmHYRlrWNghL-63">
          <mxGeometry relative="1" as="geometry" />
        </mxCell>
        <mxCell id="H5f7GRGLDmHYRlrWNghL-62" value="&lt;b&gt;A&lt;/b&gt;" style="ellipse;whiteSpace=wrap;html=1;aspect=fixed;" vertex="1" parent="1">
          <mxGeometry x="-862.5" y="400" width="50" height="50" as="geometry" />
        </mxCell>
        <mxCell id="H5f7GRGLDmHYRlrWNghL-72" value="" style="edgeStyle=orthogonalEdgeStyle;rounded=0;orthogonalLoop=1;jettySize=auto;html=1;" edge="1" parent="1" source="H5f7GRGLDmHYRlrWNghL-63" target="H5f7GRGLDmHYRlrWNghL-66">
          <mxGeometry relative="1" as="geometry" />
        </mxCell>
        <mxCell id="H5f7GRGLDmHYRlrWNghL-63" value="Ask user to enter title of the survey" style="rounded=0;whiteSpace=wrap;html=1;" vertex="1" parent="1">
          <mxGeometry x="-897.5" y="520" width="120" height="60" as="geometry" />
        </mxCell>
        <mxCell id="H5f7GRGLDmHYRlrWNghL-73" value="" style="edgeStyle=orthogonalEdgeStyle;rounded=0;orthogonalLoop=1;jettySize=auto;html=1;" edge="1" parent="1" source="H5f7GRGLDmHYRlrWNghL-66" target="H5f7GRGLDmHYRlrWNghL-67">
          <mxGeometry relative="1" as="geometry" />
        </mxCell>
        <mxCell id="H5f7GRGLDmHYRlrWNghL-66" value="Ask user the amount of questions" style="rounded=0;whiteSpace=wrap;html=1;" vertex="1" parent="1">
          <mxGeometry x="-897.5" y="620" width="120" height="60" as="geometry" />
        </mxCell>
        <mxCell id="H5f7GRGLDmHYRlrWNghL-74" value="" style="edgeStyle=orthogonalEdgeStyle;rounded=0;orthogonalLoop=1;jettySize=auto;html=1;" edge="1" parent="1" source="H5f7GRGLDmHYRlrWNghL-67" target="H5f7GRGLDmHYRlrWNghL-68">
          <mxGeometry relative="1" as="geometry" />
        </mxCell>
        <mxCell id="H5f7GRGLDmHYRlrWNghL-67" value="Ask user to enter the question" style="rounded=0;whiteSpace=wrap;html=1;" vertex="1" parent="1">
          <mxGeometry x="-897.5" y="730" width="120" height="60" as="geometry" />
        </mxCell>
        <mxCell id="H5f7GRGLDmHYRlrWNghL-71" style="edgeStyle=orthogonalEdgeStyle;rounded=0;orthogonalLoop=1;jettySize=auto;html=1;entryX=0.5;entryY=0;entryDx=0;entryDy=0;" edge="1" parent="1" source="H5f7GRGLDmHYRlrWNghL-68" target="H5f7GRGLDmHYRlrWNghL-69">
          <mxGeometry relative="1" as="geometry" />
        </mxCell>
        <mxCell id="H5f7GRGLDmHYRlrWNghL-78" style="edgeStyle=orthogonalEdgeStyle;rounded=0;orthogonalLoop=1;jettySize=auto;html=1;entryX=0.5;entryY=0;entryDx=0;entryDy=0;" edge="1" parent="1" source="H5f7GRGLDmHYRlrWNghL-68" target="H5f7GRGLDmHYRlrWNghL-77">
          <mxGeometry relative="1" as="geometry" />
        </mxCell>
        <mxCell id="H5f7GRGLDmHYRlrWNghL-68" value="Is it multiple choices?" style="rhombus;whiteSpace=wrap;html=1;" vertex="1" parent="1">
          <mxGeometry x="-886.25" y="840" width="97.5" height="80" as="geometry" />
        </mxCell>
        <mxCell id="H5f7GRGLDmHYRlrWNghL-69" value="Enter choices" style="rounded=0;whiteSpace=wrap;html=1;" vertex="1" parent="1">
          <mxGeometry x="-1017.5" y="930" width="120" height="60" as="geometry" />
        </mxCell>
        <mxCell id="H5f7GRGLDmHYRlrWNghL-98" value="" style="edgeStyle=orthogonalEdgeStyle;rounded=0;orthogonalLoop=1;jettySize=auto;html=1;" edge="1" parent="1" source="H5f7GRGLDmHYRlrWNghL-77">
          <mxGeometry relative="1" as="geometry">
            <mxPoint x="-837.5" y="1120" as="targetPoint" />
            <Array as="points">
              <mxPoint x="-837.5" y="1120" />
              <mxPoint x="-837.5" y="1120" />
            </Array>
          </mxGeometry>
        </mxCell>
        <mxCell id="H5f7GRGLDmHYRlrWNghL-99" style="edgeStyle=orthogonalEdgeStyle;rounded=0;orthogonalLoop=1;jettySize=auto;html=1;" edge="1" parent="1" source="H5f7GRGLDmHYRlrWNghL-77">
          <mxGeometry relative="1" as="geometry">
            <mxPoint x="-837.5" y="700" as="targetPoint" />
            <Array as="points">
              <mxPoint x="-692.5" y="1020" />
              <mxPoint x="-692.5" y="700" />
            </Array>
          </mxGeometry>
        </mxCell>
        <mxCell id="H5f7GRGLDmHYRlrWNghL-77" value="Is the last question?" style="rhombus;whiteSpace=wrap;html=1;" vertex="1" parent="1">
          <mxGeometry x="-877.5" y="980" width="80" height="80" as="geometry" />
        </mxCell>
        <mxCell id="H5f7GRGLDmHYRlrWNghL-79" style="edgeStyle=orthogonalEdgeStyle;rounded=0;orthogonalLoop=1;jettySize=auto;html=1;entryX=0;entryY=0.5;entryDx=0;entryDy=0;exitX=0.467;exitY=1.013;exitDx=0;exitDy=0;exitPerimeter=0;" edge="1" parent="1" source="H5f7GRGLDmHYRlrWNghL-69" target="H5f7GRGLDmHYRlrWNghL-77">
          <mxGeometry relative="1" as="geometry" />
        </mxCell>
        <mxCell id="H5f7GRGLDmHYRlrWNghL-102" value="Yes" style="text;html=1;align=center;verticalAlign=middle;resizable=0;points=[];autosize=1;strokeColor=none;fillColor=none;fontSize=12;fontFamily=Helvetica;fontColor=default;" vertex="1" parent="1">
          <mxGeometry x="440" y="280" width="40" height="30" as="geometry" />
        </mxCell>
        <mxCell id="H5f7GRGLDmHYRlrWNghL-107" value="No" style="text;html=1;align=center;verticalAlign=middle;resizable=0;points=[];autosize=1;strokeColor=none;fillColor=none;fontSize=12;fontFamily=Helvetica;fontColor=default;" vertex="1" parent="1">
          <mxGeometry x="540.0000000000001" y="280" width="40" height="30" as="geometry" />
        </mxCell>
        <mxCell id="H5f7GRGLDmHYRlrWNghL-108" value="No" style="text;html=1;align=center;verticalAlign=middle;resizable=0;points=[];autosize=1;strokeColor=none;fillColor=none;fontSize=12;fontFamily=Helvetica;fontColor=default;" vertex="1" parent="1">
          <mxGeometry x="710.0000000000001" y="350" width="40" height="30" as="geometry" />
        </mxCell>
        <mxCell id="H5f7GRGLDmHYRlrWNghL-110" value="No" style="text;html=1;align=center;verticalAlign=middle;resizable=0;points=[];autosize=1;strokeColor=none;fillColor=none;fontSize=12;fontFamily=Helvetica;fontColor=default;" vertex="1" parent="1">
          <mxGeometry x="360.0000000000001" y="520" width="40" height="30" as="geometry" />
        </mxCell>
        <mxCell id="H5f7GRGLDmHYRlrWNghL-111" value="No" style="text;html=1;align=center;verticalAlign=middle;resizable=0;points=[];autosize=1;strokeColor=none;fillColor=none;fontSize=12;fontFamily=Helvetica;fontColor=default;" vertex="1" parent="1">
          <mxGeometry x="-847.4999999999999" y="910" width="40" height="30" as="geometry" />
        </mxCell>
        <mxCell id="H5f7GRGLDmHYRlrWNghL-114" value="Yes" style="text;html=1;align=center;verticalAlign=middle;resizable=0;points=[];autosize=1;strokeColor=none;fillColor=none;fontSize=12;fontFamily=Helvetica;fontColor=default;" vertex="1" parent="1">
          <mxGeometry x="620" y="350" width="40" height="30" as="geometry" />
        </mxCell>
        <mxCell id="H5f7GRGLDmHYRlrWNghL-116" value="Yes" style="text;html=1;align=center;verticalAlign=middle;resizable=0;points=[];autosize=1;strokeColor=none;fillColor=none;fontSize=12;fontFamily=Helvetica;fontColor=default;" vertex="1" parent="1">
          <mxGeometry x="250" y="518.4300000000001" width="40" height="30" as="geometry" />
        </mxCell>
        <mxCell id="H5f7GRGLDmHYRlrWNghL-117" value="Yes" style="text;html=1;align=center;verticalAlign=middle;resizable=0;points=[];autosize=1;strokeColor=none;fillColor=none;fontSize=12;fontFamily=Helvetica;fontColor=default;" vertex="1" parent="1">
          <mxGeometry x="-912.5" y="845" width="40" height="30" as="geometry" />
        </mxCell>
        <mxCell id="H5f7GRGLDmHYRlrWNghL-118" value="Yes" style="text;html=1;align=center;verticalAlign=middle;resizable=0;points=[];autosize=1;strokeColor=none;fillColor=none;fontSize=12;fontFamily=Helvetica;fontColor=default;" vertex="1" parent="1">
          <mxGeometry x="-877.5" y="1050" width="40" height="30" as="geometry" />
        </mxCell>
        <mxCell id="H5f7GRGLDmHYRlrWNghL-119" value="No" style="text;html=1;align=center;verticalAlign=middle;resizable=0;points=[];autosize=1;strokeColor=none;fillColor=none;fontSize=12;fontFamily=Helvetica;fontColor=default;" vertex="1" parent="1">
          <mxGeometry x="-807.4999999999999" y="990" width="40" height="30" as="geometry" />
        </mxCell>
        <mxCell id="H5f7GRGLDmHYRlrWNghL-159" style="edgeStyle=orthogonalEdgeStyle;rounded=0;orthogonalLoop=1;jettySize=auto;html=1;entryX=0.5;entryY=0;entryDx=0;entryDy=0;" edge="1" parent="1" source="H5f7GRGLDmHYRlrWNghL-160" target="H5f7GRGLDmHYRlrWNghL-162">
          <mxGeometry relative="1" as="geometry" />
        </mxCell>
        <mxCell id="H5f7GRGLDmHYRlrWNghL-160" value="&lt;b&gt;B&lt;/b&gt;" style="ellipse;whiteSpace=wrap;html=1;aspect=fixed;" vertex="1" parent="1">
          <mxGeometry x="-2110" y="380" width="50" height="50" as="geometry" />
        </mxCell>
        <mxCell id="H5f7GRGLDmHYRlrWNghL-161" value="" style="edgeStyle=orthogonalEdgeStyle;rounded=0;orthogonalLoop=1;jettySize=auto;html=1;" edge="1" parent="1" source="H5f7GRGLDmHYRlrWNghL-162" target="H5f7GRGLDmHYRlrWNghL-164">
          <mxGeometry relative="1" as="geometry" />
        </mxCell>
        <mxCell id="H5f7GRGLDmHYRlrWNghL-162" value="Display the surveys&#39; title available" style="rounded=0;whiteSpace=wrap;html=1;shape=parallelogram;perimeter=parallelogramPerimeter;fixedSize=1;" vertex="1" parent="1">
          <mxGeometry x="-2172.5" y="470" width="175" height="60" as="geometry" />
        </mxCell>
        <mxCell id="H5f7GRGLDmHYRlrWNghL-163" value="" style="edgeStyle=orthogonalEdgeStyle;rounded=0;orthogonalLoop=1;jettySize=auto;html=1;" edge="1" parent="1" source="H5f7GRGLDmHYRlrWNghL-164" target="H5f7GRGLDmHYRlrWNghL-166">
          <mxGeometry relative="1" as="geometry" />
        </mxCell>
        <mxCell id="H5f7GRGLDmHYRlrWNghL-164" value="Choose survey" style="rounded=0;whiteSpace=wrap;html=1;" vertex="1" parent="1">
          <mxGeometry x="-2145" y="570" width="120" height="60" as="geometry" />
        </mxCell>
        <mxCell id="H5f7GRGLDmHYRlrWNghL-165" value="" style="edgeStyle=orthogonalEdgeStyle;rounded=0;orthogonalLoop=1;jettySize=auto;html=1;" edge="1" parent="1" source="H5f7GRGLDmHYRlrWNghL-166">
          <mxGeometry relative="1" as="geometry">
            <mxPoint x="-2085" y="780" as="targetPoint" />
          </mxGeometry>
        </mxCell>
        <mxCell id="H5f7GRGLDmHYRlrWNghL-166" value="Display question" style="rounded=0;whiteSpace=wrap;html=1;" vertex="1" parent="1">
          <mxGeometry x="-2145" y="680" width="120" height="60" as="geometry" />
        </mxCell>
        <mxCell id="H5f7GRGLDmHYRlrWNghL-204" style="edgeStyle=orthogonalEdgeStyle;rounded=0;orthogonalLoop=1;jettySize=auto;html=1;entryX=0;entryY=0.5;entryDx=0;entryDy=0;" edge="1" parent="1" source="H5f7GRGLDmHYRlrWNghL-199" target="H5f7GRGLDmHYRlrWNghL-202">
          <mxGeometry relative="1" as="geometry" />
        </mxCell>
        <mxCell id="H5f7GRGLDmHYRlrWNghL-199" value="Is multiple choice" style="rhombus;whiteSpace=wrap;html=1;" vertex="1" parent="1">
          <mxGeometry x="-2125" y="780" width="80" height="80" as="geometry" />
        </mxCell>
        <mxCell id="H5f7GRGLDmHYRlrWNghL-200" value="Display choices" style="shape=parallelogram;perimeter=parallelogramPerimeter;whiteSpace=wrap;html=1;fixedSize=1;" vertex="1" parent="1">
          <mxGeometry x="-2300" y="810" width="120" height="60" as="geometry" />
        </mxCell>
        <mxCell id="H5f7GRGLDmHYRlrWNghL-207" style="edgeStyle=orthogonalEdgeStyle;rounded=0;orthogonalLoop=1;jettySize=auto;html=1;entryX=0;entryY=0.5;entryDx=0;entryDy=0;" edge="1" parent="1" source="H5f7GRGLDmHYRlrWNghL-201" target="H5f7GRGLDmHYRlrWNghL-206">
          <mxGeometry relative="1" as="geometry">
            <mxPoint x="-2130" y="940" as="targetPoint" />
          </mxGeometry>
        </mxCell>
        <mxCell id="H5f7GRGLDmHYRlrWNghL-201" value="Enter choice" style="rounded=0;whiteSpace=wrap;html=1;" vertex="1" parent="1">
          <mxGeometry x="-2310" y="910" width="120" height="60" as="geometry" />
        </mxCell>
        <mxCell id="H5f7GRGLDmHYRlrWNghL-208" style="edgeStyle=orthogonalEdgeStyle;rounded=0;orthogonalLoop=1;jettySize=auto;html=1;exitX=0.5;exitY=1;exitDx=0;exitDy=0;entryX=0.5;entryY=0;entryDx=0;entryDy=0;" edge="1" parent="1" source="H5f7GRGLDmHYRlrWNghL-202" target="H5f7GRGLDmHYRlrWNghL-206">
          <mxGeometry relative="1" as="geometry">
            <mxPoint x="-1980" y="985" as="targetPoint" />
            <mxPoint x="-1937" y="895" as="sourcePoint" />
          </mxGeometry>
        </mxCell>
        <mxCell id="H5f7GRGLDmHYRlrWNghL-202" value="Enter answer" style="rounded=0;whiteSpace=wrap;html=1;" vertex="1" parent="1">
          <mxGeometry x="-1997" y="790" width="120" height="60" as="geometry" />
        </mxCell>
        <mxCell id="H5f7GRGLDmHYRlrWNghL-203" style="edgeStyle=orthogonalEdgeStyle;rounded=0;orthogonalLoop=1;jettySize=auto;html=1;entryX=0.966;entryY=0.165;entryDx=0;entryDy=0;entryPerimeter=0;" edge="1" parent="1" source="H5f7GRGLDmHYRlrWNghL-199" target="H5f7GRGLDmHYRlrWNghL-200">
          <mxGeometry relative="1" as="geometry" />
        </mxCell>
        <mxCell id="H5f7GRGLDmHYRlrWNghL-205" style="edgeStyle=orthogonalEdgeStyle;rounded=0;orthogonalLoop=1;jettySize=auto;html=1;entryX=0.591;entryY=-0.004;entryDx=0;entryDy=0;entryPerimeter=0;" edge="1" parent="1" source="H5f7GRGLDmHYRlrWNghL-200" target="H5f7GRGLDmHYRlrWNghL-201">
          <mxGeometry relative="1" as="geometry" />
        </mxCell>
        <mxCell id="H5f7GRGLDmHYRlrWNghL-228" value="" style="edgeStyle=orthogonalEdgeStyle;rounded=0;orthogonalLoop=1;jettySize=auto;html=1;entryX=0.5;entryY=0;entryDx=0;entryDy=0;" edge="1" parent="1" source="H5f7GRGLDmHYRlrWNghL-206" target="H5f7GRGLDmHYRlrWNghL-387">
          <mxGeometry relative="1" as="geometry">
            <mxPoint x="-2085" y="1083" as="targetPoint" />
            <Array as="points" />
          </mxGeometry>
        </mxCell>
        <mxCell id="H5f7GRGLDmHYRlrWNghL-229" style="edgeStyle=orthogonalEdgeStyle;rounded=0;orthogonalLoop=1;jettySize=auto;html=1;" edge="1" parent="1" source="H5f7GRGLDmHYRlrWNghL-206">
          <mxGeometry relative="1" as="geometry">
            <mxPoint x="-2085" y="650" as="targetPoint" />
            <Array as="points">
              <mxPoint x="-1860" y="995" />
              <mxPoint x="-1860" y="650" />
            </Array>
          </mxGeometry>
        </mxCell>
        <mxCell id="H5f7GRGLDmHYRlrWNghL-206" value="Is it the last question" style="rhombus;whiteSpace=wrap;html=1;" vertex="1" parent="1">
          <mxGeometry x="-2125" y="955" width="80" height="80" as="geometry" />
        </mxCell>
        <mxCell id="H5f7GRGLDmHYRlrWNghL-271" style="edgeStyle=orthogonalEdgeStyle;rounded=0;orthogonalLoop=1;jettySize=auto;html=1;entryX=0.5;entryY=0;entryDx=0;entryDy=0;" edge="1" parent="1" source="H5f7GRGLDmHYRlrWNghL-272" target="H5f7GRGLDmHYRlrWNghL-274">
          <mxGeometry relative="1" as="geometry" />
        </mxCell>
        <mxCell id="H5f7GRGLDmHYRlrWNghL-272" value="&lt;b&gt;C&lt;/b&gt;" style="ellipse;whiteSpace=wrap;html=1;aspect=fixed;" vertex="1" parent="1">
          <mxGeometry x="-3348.75" y="440" width="50" height="50" as="geometry" />
        </mxCell>
        <mxCell id="H5f7GRGLDmHYRlrWNghL-273" value="" style="edgeStyle=orthogonalEdgeStyle;rounded=0;orthogonalLoop=1;jettySize=auto;html=1;" edge="1" parent="1" source="H5f7GRGLDmHYRlrWNghL-274" target="H5f7GRGLDmHYRlrWNghL-276">
          <mxGeometry relative="1" as="geometry" />
        </mxCell>
        <mxCell id="H5f7GRGLDmHYRlrWNghL-274" value="Display the surveys&#39; title taken" style="rounded=0;whiteSpace=wrap;html=1;shape=parallelogram;perimeter=parallelogramPerimeter;fixedSize=1;" vertex="1" parent="1">
          <mxGeometry x="-3420" y="530" width="192.5" height="60" as="geometry" />
        </mxCell>
        <mxCell id="H5f7GRGLDmHYRlrWNghL-275" value="" style="edgeStyle=orthogonalEdgeStyle;rounded=0;orthogonalLoop=1;jettySize=auto;html=1;" edge="1" parent="1" source="H5f7GRGLDmHYRlrWNghL-276" target="H5f7GRGLDmHYRlrWNghL-278">
          <mxGeometry relative="1" as="geometry" />
        </mxCell>
        <mxCell id="H5f7GRGLDmHYRlrWNghL-276" value="Choose survey" style="rounded=0;whiteSpace=wrap;html=1;" vertex="1" parent="1">
          <mxGeometry x="-3383.75" y="630" width="120" height="60" as="geometry" />
        </mxCell>
        <mxCell id="H5f7GRGLDmHYRlrWNghL-277" value="" style="edgeStyle=orthogonalEdgeStyle;rounded=0;orthogonalLoop=1;jettySize=auto;html=1;" edge="1" parent="1" source="H5f7GRGLDmHYRlrWNghL-278">
          <mxGeometry relative="1" as="geometry">
            <mxPoint x="-3323.75" y="840" as="targetPoint" />
          </mxGeometry>
        </mxCell>
        <mxCell id="H5f7GRGLDmHYRlrWNghL-278" value="Display user who have taken that survey" style="rounded=0;whiteSpace=wrap;html=1;shape=parallelogram;perimeter=parallelogramPerimeter;fixedSize=1;" vertex="1" parent="1">
          <mxGeometry x="-3383.75" y="740" width="120" height="60" as="geometry" />
        </mxCell>
        <mxCell id="H5f7GRGLDmHYRlrWNghL-312" style="edgeStyle=orthogonalEdgeStyle;rounded=0;orthogonalLoop=1;jettySize=auto;html=1;entryX=0.5;entryY=0;entryDx=0;entryDy=0;" edge="1" parent="1" source="H5f7GRGLDmHYRlrWNghL-310" target="H5f7GRGLDmHYRlrWNghL-311">
          <mxGeometry relative="1" as="geometry" />
        </mxCell>
        <mxCell id="H5f7GRGLDmHYRlrWNghL-310" value="Choose user" style="shape=label;whiteSpace=wrap;html=1;fixedSize=1;rounded=0;" vertex="1" parent="1">
          <mxGeometry x="-3383.75" y="840" width="120" height="60" as="geometry" />
        </mxCell>
        <mxCell id="H5f7GRGLDmHYRlrWNghL-492" style="edgeStyle=orthogonalEdgeStyle;rounded=0;orthogonalLoop=1;jettySize=auto;html=1;entryX=0.5;entryY=0;entryDx=0;entryDy=0;" edge="1" parent="1" source="H5f7GRGLDmHYRlrWNghL-311" target="H5f7GRGLDmHYRlrWNghL-458">
          <mxGeometry relative="1" as="geometry">
            <mxPoint x="-3323.75" y="1050" as="targetPoint" />
          </mxGeometry>
        </mxCell>
        <mxCell id="H5f7GRGLDmHYRlrWNghL-311" value="Display questions with user&#39;s responses" style="shape=parallelogram;perimeter=parallelogramPerimeter;whiteSpace=wrap;html=1;fixedSize=1;" vertex="1" parent="1">
          <mxGeometry x="-3401.25" y="950" width="155" height="60" as="geometry" />
        </mxCell>
        <mxCell id="H5f7GRGLDmHYRlrWNghL-349" style="edgeStyle=orthogonalEdgeStyle;rounded=0;orthogonalLoop=1;jettySize=auto;html=1;entryX=0.5;entryY=0;entryDx=0;entryDy=0;" edge="1" parent="1" source="H5f7GRGLDmHYRlrWNghL-351" target="H5f7GRGLDmHYRlrWNghL-353">
          <mxGeometry relative="1" as="geometry" />
        </mxCell>
        <mxCell id="H5f7GRGLDmHYRlrWNghL-350" style="edgeStyle=orthogonalEdgeStyle;rounded=0;orthogonalLoop=1;jettySize=auto;html=1;entryX=0.5;entryY=0;entryDx=0;entryDy=0;" edge="1" parent="1" source="H5f7GRGLDmHYRlrWNghL-351" target="H5f7GRGLDmHYRlrWNghL-355">
          <mxGeometry relative="1" as="geometry" />
        </mxCell>
        <mxCell id="H5f7GRGLDmHYRlrWNghL-351" value="Is user the admin?" style="rhombus;whiteSpace=wrap;html=1;" vertex="1" parent="1">
          <mxGeometry x="-877.5" y="1120" width="80" height="80" as="geometry" />
        </mxCell>
        <mxCell id="H5f7GRGLDmHYRlrWNghL-352" value="" style="edgeStyle=orthogonalEdgeStyle;rounded=0;orthogonalLoop=1;jettySize=auto;html=1;" edge="1" parent="1" source="H5f7GRGLDmHYRlrWNghL-353" target="H5f7GRGLDmHYRlrWNghL-359">
          <mxGeometry relative="1" as="geometry" />
        </mxCell>
        <mxCell id="H5f7GRGLDmHYRlrWNghL-353" value="Display admin menu" style="shape=parallelogram;perimeter=parallelogramPerimeter;whiteSpace=wrap;html=1;fixedSize=1;" vertex="1" parent="1">
          <mxGeometry x="-1180" y="1220" width="140" height="60" as="geometry" />
        </mxCell>
        <mxCell id="H5f7GRGLDmHYRlrWNghL-354" style="edgeStyle=orthogonalEdgeStyle;rounded=0;orthogonalLoop=1;jettySize=auto;html=1;entryX=0.5;entryY=0;entryDx=0;entryDy=0;" edge="1" parent="1" source="H5f7GRGLDmHYRlrWNghL-355" target="H5f7GRGLDmHYRlrWNghL-363">
          <mxGeometry relative="1" as="geometry" />
        </mxCell>
        <mxCell id="H5f7GRGLDmHYRlrWNghL-355" value="Display non-admin menu" style="shape=parallelogram;perimeter=parallelogramPerimeter;whiteSpace=wrap;html=1;fixedSize=1;" vertex="1" parent="1">
          <mxGeometry x="-710" y="1220" width="160" height="60" as="geometry" />
        </mxCell>
        <mxCell id="H5f7GRGLDmHYRlrWNghL-356" style="edgeStyle=orthogonalEdgeStyle;rounded=0;orthogonalLoop=1;jettySize=auto;html=1;entryX=0.5;entryY=0;entryDx=0;entryDy=0;" edge="1" parent="1" source="H5f7GRGLDmHYRlrWNghL-359" target="H5f7GRGLDmHYRlrWNghL-365">
          <mxGeometry relative="1" as="geometry" />
        </mxCell>
        <mxCell id="H5f7GRGLDmHYRlrWNghL-357" style="edgeStyle=orthogonalEdgeStyle;rounded=0;orthogonalLoop=1;jettySize=auto;html=1;entryX=0.5;entryY=0;entryDx=0;entryDy=0;" edge="1" parent="1" source="H5f7GRGLDmHYRlrWNghL-359" target="H5f7GRGLDmHYRlrWNghL-367">
          <mxGeometry relative="1" as="geometry" />
        </mxCell>
        <mxCell id="H5f7GRGLDmHYRlrWNghL-358" value="" style="edgeStyle=orthogonalEdgeStyle;rounded=0;orthogonalLoop=1;jettySize=auto;html=1;" edge="1" parent="1">
          <mxGeometry relative="1" as="geometry">
            <mxPoint x="-1110.4299999999998" y="1404.166666666667" as="sourcePoint" />
            <mxPoint x="-1110.4299999999998" y="1510" as="targetPoint" />
            <Array as="points">
              <mxPoint x="-1110.43" y="1440" />
              <mxPoint x="-1110.43" y="1440" />
            </Array>
          </mxGeometry>
        </mxCell>
        <mxCell id="H5f7GRGLDmHYRlrWNghL-359" value="Enter choice" style="rounded=0;whiteSpace=wrap;html=1;shape=rhombus;perimeter=rhombusPerimeter;" vertex="1" parent="1">
          <mxGeometry x="-1170" y="1340" width="120" height="70" as="geometry" />
        </mxCell>
        <mxCell id="H5f7GRGLDmHYRlrWNghL-360" style="edgeStyle=orthogonalEdgeStyle;rounded=0;orthogonalLoop=1;jettySize=auto;html=1;entryX=0.5;entryY=0;entryDx=0;entryDy=0;" edge="1" parent="1" source="H5f7GRGLDmHYRlrWNghL-363" target="H5f7GRGLDmHYRlrWNghL-373">
          <mxGeometry relative="1" as="geometry" />
        </mxCell>
        <mxCell id="H5f7GRGLDmHYRlrWNghL-361" style="edgeStyle=orthogonalEdgeStyle;rounded=0;orthogonalLoop=1;jettySize=auto;html=1;entryX=0.431;entryY=-0.026;entryDx=0;entryDy=0;entryPerimeter=0;" edge="1" parent="1" source="H5f7GRGLDmHYRlrWNghL-363" target="H5f7GRGLDmHYRlrWNghL-375">
          <mxGeometry relative="1" as="geometry">
            <Array as="points">
              <mxPoint x="-629" y="1440" />
              <mxPoint x="-629" y="1440" />
            </Array>
          </mxGeometry>
        </mxCell>
        <mxCell id="H5f7GRGLDmHYRlrWNghL-362" style="edgeStyle=orthogonalEdgeStyle;rounded=0;orthogonalLoop=1;jettySize=auto;html=1;entryX=0.5;entryY=0;entryDx=0;entryDy=0;" edge="1" parent="1" source="H5f7GRGLDmHYRlrWNghL-363" target="H5f7GRGLDmHYRlrWNghL-377">
          <mxGeometry relative="1" as="geometry" />
        </mxCell>
        <mxCell id="H5f7GRGLDmHYRlrWNghL-363" value="Enter choice" style="rounded=0;whiteSpace=wrap;html=1;shape=rhombus;perimeter=rhombusPerimeter;" vertex="1" parent="1">
          <mxGeometry x="-690" y="1350" width="120" height="60" as="geometry" />
        </mxCell>
        <mxCell id="H5f7GRGLDmHYRlrWNghL-364" style="edgeStyle=orthogonalEdgeStyle;rounded=0;orthogonalLoop=1;jettySize=auto;html=1;" edge="1" parent="1" source="H5f7GRGLDmHYRlrWNghL-365">
          <mxGeometry relative="1" as="geometry">
            <mxPoint x="-1410" y="1620" as="targetPoint" />
          </mxGeometry>
        </mxCell>
        <mxCell id="H5f7GRGLDmHYRlrWNghL-365" value="Create Survey" style="rounded=0;whiteSpace=wrap;html=1;" vertex="1" parent="1">
          <mxGeometry x="-1470" y="1510" width="120" height="60" as="geometry" />
        </mxCell>
        <mxCell id="H5f7GRGLDmHYRlrWNghL-366" style="edgeStyle=orthogonalEdgeStyle;rounded=0;orthogonalLoop=1;jettySize=auto;html=1;entryX=0.5;entryY=0;entryDx=0;entryDy=0;" edge="1" parent="1" source="H5f7GRGLDmHYRlrWNghL-367">
          <mxGeometry relative="1" as="geometry">
            <mxPoint x="-1250" y="1620" as="targetPoint" />
          </mxGeometry>
        </mxCell>
        <mxCell id="H5f7GRGLDmHYRlrWNghL-367" value="Take Survey" style="rounded=0;whiteSpace=wrap;html=1;" vertex="1" parent="1">
          <mxGeometry x="-1310" y="1510" width="120" height="60" as="geometry" />
        </mxCell>
        <mxCell id="H5f7GRGLDmHYRlrWNghL-368" style="edgeStyle=orthogonalEdgeStyle;rounded=0;orthogonalLoop=1;jettySize=auto;html=1;entryX=0.5;entryY=0;entryDx=0;entryDy=0;" edge="1" parent="1" source="H5f7GRGLDmHYRlrWNghL-369">
          <mxGeometry relative="1" as="geometry">
            <mxPoint x="-1100" y="1620" as="targetPoint" />
          </mxGeometry>
        </mxCell>
        <mxCell id="H5f7GRGLDmHYRlrWNghL-369" value="View Results" style="rounded=0;whiteSpace=wrap;html=1;" vertex="1" parent="1">
          <mxGeometry x="-1160" y="1510" width="120" height="60" as="geometry" />
        </mxCell>
        <mxCell id="H5f7GRGLDmHYRlrWNghL-370" style="edgeStyle=orthogonalEdgeStyle;rounded=0;orthogonalLoop=1;jettySize=auto;html=1;entryX=0;entryY=0.5;entryDx=0;entryDy=0;exitX=0.5;exitY=1;exitDx=0;exitDy=0;" edge="1" parent="1" source="H5f7GRGLDmHYRlrWNghL-371" target="H5f7GRGLDmHYRlrWNghL-378">
          <mxGeometry relative="1" as="geometry" />
        </mxCell>
        <mxCell id="H5f7GRGLDmHYRlrWNghL-371" value="Exit" style="rounded=0;whiteSpace=wrap;html=1;" vertex="1" parent="1">
          <mxGeometry x="-1010" y="1500" width="120" height="60" as="geometry" />
        </mxCell>
        <mxCell id="H5f7GRGLDmHYRlrWNghL-372" value="" style="edgeStyle=orthogonalEdgeStyle;rounded=0;orthogonalLoop=1;jettySize=auto;html=1;" edge="1" parent="1" source="H5f7GRGLDmHYRlrWNghL-373" target="H5f7GRGLDmHYRlrWNghL-381">
          <mxGeometry relative="1" as="geometry" />
        </mxCell>
        <mxCell id="H5f7GRGLDmHYRlrWNghL-373" value="Take Survey" style="rounded=0;whiteSpace=wrap;html=1;" vertex="1" parent="1">
          <mxGeometry x="-820" y="1500" width="120" height="60" as="geometry" />
        </mxCell>
        <mxCell id="H5f7GRGLDmHYRlrWNghL-374" value="" style="edgeStyle=orthogonalEdgeStyle;rounded=0;orthogonalLoop=1;jettySize=auto;html=1;" edge="1" parent="1" source="H5f7GRGLDmHYRlrWNghL-375" target="H5f7GRGLDmHYRlrWNghL-382">
          <mxGeometry relative="1" as="geometry" />
        </mxCell>
        <mxCell id="H5f7GRGLDmHYRlrWNghL-375" value="View Results" style="rounded=0;whiteSpace=wrap;html=1;" vertex="1" parent="1">
          <mxGeometry x="-680" y="1500" width="120" height="60" as="geometry" />
        </mxCell>
        <mxCell id="H5f7GRGLDmHYRlrWNghL-376" style="edgeStyle=orthogonalEdgeStyle;rounded=0;orthogonalLoop=1;jettySize=auto;html=1;entryX=1;entryY=0.5;entryDx=0;entryDy=0;" edge="1" parent="1" source="H5f7GRGLDmHYRlrWNghL-377" target="H5f7GRGLDmHYRlrWNghL-378">
          <mxGeometry relative="1" as="geometry">
            <Array as="points">
              <mxPoint x="-480" y="1657" />
            </Array>
          </mxGeometry>
        </mxCell>
        <mxCell id="H5f7GRGLDmHYRlrWNghL-377" value="Exit" style="rounded=0;whiteSpace=wrap;html=1;" vertex="1" parent="1">
          <mxGeometry x="-540" y="1500" width="120" height="60" as="geometry" />
        </mxCell>
        <mxCell id="H5f7GRGLDmHYRlrWNghL-378" value="&lt;b&gt;End&lt;/b&gt;" style="whiteSpace=wrap;strokeWidth=2;rounded=1;glass=0;shadow=0;shape=ellipse;perimeter=ellipsePerimeter;html=1;" vertex="1" parent="1">
          <mxGeometry x="-880" y="1640" width="50" height="33" as="geometry" />
        </mxCell>
        <mxCell id="H5f7GRGLDmHYRlrWNghL-379" style="edgeStyle=orthogonalEdgeStyle;rounded=0;orthogonalLoop=1;jettySize=auto;html=1;exitX=1;exitY=0.5;exitDx=0;exitDy=0;entryX=0.627;entryY=0.04;entryDx=0;entryDy=0;entryPerimeter=0;" edge="1" parent="1" source="H5f7GRGLDmHYRlrWNghL-359" target="H5f7GRGLDmHYRlrWNghL-371">
          <mxGeometry relative="1" as="geometry" />
        </mxCell>
        <mxCell id="H5f7GRGLDmHYRlrWNghL-380" value="&lt;b&gt;A&lt;/b&gt;" style="ellipse;whiteSpace=wrap;html=1;aspect=fixed;" vertex="1" parent="1">
          <mxGeometry x="-1435" y="1620" width="50" height="50" as="geometry" />
        </mxCell>
        <mxCell id="H5f7GRGLDmHYRlrWNghL-381" value="&lt;b&gt;B&lt;/b&gt;" style="ellipse;whiteSpace=wrap;html=1;aspect=fixed;" vertex="1" parent="1">
          <mxGeometry x="-785" y="1585" width="50" height="50" as="geometry" />
        </mxCell>
        <mxCell id="H5f7GRGLDmHYRlrWNghL-382" value="&lt;b&gt;C&lt;/b&gt;" style="ellipse;whiteSpace=wrap;html=1;aspect=fixed;" vertex="1" parent="1">
          <mxGeometry x="-645" y="1585" width="50" height="50" as="geometry" />
        </mxCell>
        <mxCell id="H5f7GRGLDmHYRlrWNghL-383" value="&lt;b&gt;B&lt;/b&gt;" style="ellipse;whiteSpace=wrap;html=1;aspect=fixed;" vertex="1" parent="1">
          <mxGeometry x="-1275" y="1620" width="50" height="50" as="geometry" />
        </mxCell>
        <mxCell id="H5f7GRGLDmHYRlrWNghL-384" value="&lt;b&gt;C&lt;/b&gt;" style="ellipse;whiteSpace=wrap;html=1;aspect=fixed;" vertex="1" parent="1">
          <mxGeometry x="-1125" y="1620" width="50" height="50" as="geometry" />
        </mxCell>
        <mxCell id="H5f7GRGLDmHYRlrWNghL-385" style="edgeStyle=orthogonalEdgeStyle;rounded=0;orthogonalLoop=1;jettySize=auto;html=1;entryX=0.5;entryY=0;entryDx=0;entryDy=0;" edge="1" parent="1" source="H5f7GRGLDmHYRlrWNghL-387" target="H5f7GRGLDmHYRlrWNghL-389">
          <mxGeometry relative="1" as="geometry" />
        </mxCell>
        <mxCell id="H5f7GRGLDmHYRlrWNghL-386" style="edgeStyle=orthogonalEdgeStyle;rounded=0;orthogonalLoop=1;jettySize=auto;html=1;entryX=0.5;entryY=0;entryDx=0;entryDy=0;" edge="1" parent="1" source="H5f7GRGLDmHYRlrWNghL-387" target="H5f7GRGLDmHYRlrWNghL-391">
          <mxGeometry relative="1" as="geometry" />
        </mxCell>
        <mxCell id="H5f7GRGLDmHYRlrWNghL-387" value="Is user the admin?" style="rhombus;whiteSpace=wrap;html=1;" vertex="1" parent="1">
          <mxGeometry x="-2125" y="1087" width="80" height="80" as="geometry" />
        </mxCell>
        <mxCell id="H5f7GRGLDmHYRlrWNghL-388" value="" style="edgeStyle=orthogonalEdgeStyle;rounded=0;orthogonalLoop=1;jettySize=auto;html=1;" edge="1" parent="1" source="H5f7GRGLDmHYRlrWNghL-389" target="H5f7GRGLDmHYRlrWNghL-395">
          <mxGeometry relative="1" as="geometry" />
        </mxCell>
        <mxCell id="H5f7GRGLDmHYRlrWNghL-389" value="Display admin menu" style="shape=parallelogram;perimeter=parallelogramPerimeter;whiteSpace=wrap;html=1;fixedSize=1;" vertex="1" parent="1">
          <mxGeometry x="-2420" y="1187" width="140" height="60" as="geometry" />
        </mxCell>
        <mxCell id="H5f7GRGLDmHYRlrWNghL-390" style="edgeStyle=orthogonalEdgeStyle;rounded=0;orthogonalLoop=1;jettySize=auto;html=1;entryX=0.5;entryY=0;entryDx=0;entryDy=0;" edge="1" parent="1" source="H5f7GRGLDmHYRlrWNghL-391" target="H5f7GRGLDmHYRlrWNghL-399">
          <mxGeometry relative="1" as="geometry" />
        </mxCell>
        <mxCell id="H5f7GRGLDmHYRlrWNghL-391" value="Display non-admin menu" style="shape=parallelogram;perimeter=parallelogramPerimeter;whiteSpace=wrap;html=1;fixedSize=1;" vertex="1" parent="1">
          <mxGeometry x="-1950" y="1187" width="160" height="60" as="geometry" />
        </mxCell>
        <mxCell id="H5f7GRGLDmHYRlrWNghL-392" style="edgeStyle=orthogonalEdgeStyle;rounded=0;orthogonalLoop=1;jettySize=auto;html=1;entryX=0.5;entryY=0;entryDx=0;entryDy=0;" edge="1" parent="1" source="H5f7GRGLDmHYRlrWNghL-395" target="H5f7GRGLDmHYRlrWNghL-401">
          <mxGeometry relative="1" as="geometry" />
        </mxCell>
        <mxCell id="H5f7GRGLDmHYRlrWNghL-393" style="edgeStyle=orthogonalEdgeStyle;rounded=0;orthogonalLoop=1;jettySize=auto;html=1;entryX=0.5;entryY=0;entryDx=0;entryDy=0;" edge="1" parent="1" source="H5f7GRGLDmHYRlrWNghL-395" target="H5f7GRGLDmHYRlrWNghL-403">
          <mxGeometry relative="1" as="geometry" />
        </mxCell>
        <mxCell id="H5f7GRGLDmHYRlrWNghL-394" value="" style="edgeStyle=orthogonalEdgeStyle;rounded=0;orthogonalLoop=1;jettySize=auto;html=1;" edge="1" parent="1">
          <mxGeometry relative="1" as="geometry">
            <mxPoint x="-2350.43" y="1371.166666666667" as="sourcePoint" />
            <mxPoint x="-2350.43" y="1477" as="targetPoint" />
            <Array as="points">
              <mxPoint x="-2350.4300000000003" y="1407" />
              <mxPoint x="-2350.4300000000003" y="1407" />
            </Array>
          </mxGeometry>
        </mxCell>
        <mxCell id="H5f7GRGLDmHYRlrWNghL-395" value="Enter choice" style="rounded=0;whiteSpace=wrap;html=1;shape=rhombus;perimeter=rhombusPerimeter;" vertex="1" parent="1">
          <mxGeometry x="-2410" y="1307" width="120" height="70" as="geometry" />
        </mxCell>
        <mxCell id="H5f7GRGLDmHYRlrWNghL-396" style="edgeStyle=orthogonalEdgeStyle;rounded=0;orthogonalLoop=1;jettySize=auto;html=1;entryX=0.5;entryY=0;entryDx=0;entryDy=0;" edge="1" parent="1" source="H5f7GRGLDmHYRlrWNghL-399" target="H5f7GRGLDmHYRlrWNghL-409">
          <mxGeometry relative="1" as="geometry" />
        </mxCell>
        <mxCell id="H5f7GRGLDmHYRlrWNghL-397" style="edgeStyle=orthogonalEdgeStyle;rounded=0;orthogonalLoop=1;jettySize=auto;html=1;entryX=0.431;entryY=-0.026;entryDx=0;entryDy=0;entryPerimeter=0;" edge="1" parent="1" source="H5f7GRGLDmHYRlrWNghL-399" target="H5f7GRGLDmHYRlrWNghL-411">
          <mxGeometry relative="1" as="geometry">
            <Array as="points">
              <mxPoint x="-1869" y="1407" />
              <mxPoint x="-1869" y="1407" />
            </Array>
          </mxGeometry>
        </mxCell>
        <mxCell id="H5f7GRGLDmHYRlrWNghL-398" style="edgeStyle=orthogonalEdgeStyle;rounded=0;orthogonalLoop=1;jettySize=auto;html=1;entryX=0.5;entryY=0;entryDx=0;entryDy=0;" edge="1" parent="1" source="H5f7GRGLDmHYRlrWNghL-399" target="H5f7GRGLDmHYRlrWNghL-413">
          <mxGeometry relative="1" as="geometry" />
        </mxCell>
        <mxCell id="H5f7GRGLDmHYRlrWNghL-399" value="Enter choice" style="rounded=0;whiteSpace=wrap;html=1;shape=rhombus;perimeter=rhombusPerimeter;" vertex="1" parent="1">
          <mxGeometry x="-1930" y="1317" width="120" height="60" as="geometry" />
        </mxCell>
        <mxCell id="H5f7GRGLDmHYRlrWNghL-400" style="edgeStyle=orthogonalEdgeStyle;rounded=0;orthogonalLoop=1;jettySize=auto;html=1;" edge="1" parent="1" source="H5f7GRGLDmHYRlrWNghL-401">
          <mxGeometry relative="1" as="geometry">
            <mxPoint x="-2650" y="1587" as="targetPoint" />
          </mxGeometry>
        </mxCell>
        <mxCell id="H5f7GRGLDmHYRlrWNghL-401" value="Create Survey" style="rounded=0;whiteSpace=wrap;html=1;" vertex="1" parent="1">
          <mxGeometry x="-2710" y="1477" width="120" height="60" as="geometry" />
        </mxCell>
        <mxCell id="H5f7GRGLDmHYRlrWNghL-402" style="edgeStyle=orthogonalEdgeStyle;rounded=0;orthogonalLoop=1;jettySize=auto;html=1;entryX=0.5;entryY=0;entryDx=0;entryDy=0;" edge="1" parent="1" source="H5f7GRGLDmHYRlrWNghL-403">
          <mxGeometry relative="1" as="geometry">
            <mxPoint x="-2490" y="1587" as="targetPoint" />
          </mxGeometry>
        </mxCell>
        <mxCell id="H5f7GRGLDmHYRlrWNghL-403" value="Take Survey" style="rounded=0;whiteSpace=wrap;html=1;" vertex="1" parent="1">
          <mxGeometry x="-2550" y="1477" width="120" height="60" as="geometry" />
        </mxCell>
        <mxCell id="H5f7GRGLDmHYRlrWNghL-404" style="edgeStyle=orthogonalEdgeStyle;rounded=0;orthogonalLoop=1;jettySize=auto;html=1;entryX=0.5;entryY=0;entryDx=0;entryDy=0;" edge="1" parent="1" source="H5f7GRGLDmHYRlrWNghL-405">
          <mxGeometry relative="1" as="geometry">
            <mxPoint x="-2340" y="1587" as="targetPoint" />
          </mxGeometry>
        </mxCell>
        <mxCell id="H5f7GRGLDmHYRlrWNghL-405" value="View Results" style="rounded=0;whiteSpace=wrap;html=1;" vertex="1" parent="1">
          <mxGeometry x="-2400" y="1477" width="120" height="60" as="geometry" />
        </mxCell>
        <mxCell id="H5f7GRGLDmHYRlrWNghL-406" style="edgeStyle=orthogonalEdgeStyle;rounded=0;orthogonalLoop=1;jettySize=auto;html=1;entryX=0;entryY=0.5;entryDx=0;entryDy=0;exitX=0.5;exitY=1;exitDx=0;exitDy=0;" edge="1" parent="1" source="H5f7GRGLDmHYRlrWNghL-407" target="H5f7GRGLDmHYRlrWNghL-414">
          <mxGeometry relative="1" as="geometry" />
        </mxCell>
        <mxCell id="H5f7GRGLDmHYRlrWNghL-407" value="Exit" style="rounded=0;whiteSpace=wrap;html=1;" vertex="1" parent="1">
          <mxGeometry x="-2250" y="1467" width="120" height="60" as="geometry" />
        </mxCell>
        <mxCell id="H5f7GRGLDmHYRlrWNghL-408" value="" style="edgeStyle=orthogonalEdgeStyle;rounded=0;orthogonalLoop=1;jettySize=auto;html=1;" edge="1" parent="1" source="H5f7GRGLDmHYRlrWNghL-409" target="H5f7GRGLDmHYRlrWNghL-417">
          <mxGeometry relative="1" as="geometry" />
        </mxCell>
        <mxCell id="H5f7GRGLDmHYRlrWNghL-409" value="Take Survey" style="rounded=0;whiteSpace=wrap;html=1;" vertex="1" parent="1">
          <mxGeometry x="-2060" y="1467" width="120" height="60" as="geometry" />
        </mxCell>
        <mxCell id="H5f7GRGLDmHYRlrWNghL-410" value="" style="edgeStyle=orthogonalEdgeStyle;rounded=0;orthogonalLoop=1;jettySize=auto;html=1;" edge="1" parent="1" source="H5f7GRGLDmHYRlrWNghL-411" target="H5f7GRGLDmHYRlrWNghL-418">
          <mxGeometry relative="1" as="geometry" />
        </mxCell>
        <mxCell id="H5f7GRGLDmHYRlrWNghL-411" value="View Results" style="rounded=0;whiteSpace=wrap;html=1;" vertex="1" parent="1">
          <mxGeometry x="-1920" y="1467" width="120" height="60" as="geometry" />
        </mxCell>
        <mxCell id="H5f7GRGLDmHYRlrWNghL-412" style="edgeStyle=orthogonalEdgeStyle;rounded=0;orthogonalLoop=1;jettySize=auto;html=1;entryX=1;entryY=0.5;entryDx=0;entryDy=0;" edge="1" parent="1" source="H5f7GRGLDmHYRlrWNghL-413" target="H5f7GRGLDmHYRlrWNghL-414">
          <mxGeometry relative="1" as="geometry">
            <Array as="points">
              <mxPoint x="-1720" y="1624" />
            </Array>
          </mxGeometry>
        </mxCell>
        <mxCell id="H5f7GRGLDmHYRlrWNghL-413" value="Exit" style="rounded=0;whiteSpace=wrap;html=1;" vertex="1" parent="1">
          <mxGeometry x="-1780" y="1467" width="120" height="60" as="geometry" />
        </mxCell>
        <mxCell id="H5f7GRGLDmHYRlrWNghL-414" value="&lt;b&gt;End&lt;/b&gt;" style="whiteSpace=wrap;strokeWidth=2;rounded=1;glass=0;shadow=0;shape=ellipse;perimeter=ellipsePerimeter;html=1;" vertex="1" parent="1">
          <mxGeometry x="-2120" y="1607" width="50" height="33" as="geometry" />
        </mxCell>
        <mxCell id="H5f7GRGLDmHYRlrWNghL-415" style="edgeStyle=orthogonalEdgeStyle;rounded=0;orthogonalLoop=1;jettySize=auto;html=1;exitX=1;exitY=0.5;exitDx=0;exitDy=0;entryX=0.627;entryY=0.04;entryDx=0;entryDy=0;entryPerimeter=0;" edge="1" parent="1" source="H5f7GRGLDmHYRlrWNghL-395" target="H5f7GRGLDmHYRlrWNghL-407">
          <mxGeometry relative="1" as="geometry" />
        </mxCell>
        <mxCell id="H5f7GRGLDmHYRlrWNghL-416" value="&lt;b&gt;A&lt;/b&gt;" style="ellipse;whiteSpace=wrap;html=1;aspect=fixed;" vertex="1" parent="1">
          <mxGeometry x="-2675" y="1587" width="50" height="50" as="geometry" />
        </mxCell>
        <mxCell id="H5f7GRGLDmHYRlrWNghL-417" value="&lt;b&gt;B&lt;/b&gt;" style="ellipse;whiteSpace=wrap;html=1;aspect=fixed;" vertex="1" parent="1">
          <mxGeometry x="-2025" y="1552" width="50" height="50" as="geometry" />
        </mxCell>
        <mxCell id="H5f7GRGLDmHYRlrWNghL-418" value="&lt;b&gt;C&lt;/b&gt;" style="ellipse;whiteSpace=wrap;html=1;aspect=fixed;" vertex="1" parent="1">
          <mxGeometry x="-1885" y="1552" width="50" height="50" as="geometry" />
        </mxCell>
        <mxCell id="H5f7GRGLDmHYRlrWNghL-419" value="&lt;b&gt;B&lt;/b&gt;" style="ellipse;whiteSpace=wrap;html=1;aspect=fixed;" vertex="1" parent="1">
          <mxGeometry x="-2515" y="1587" width="50" height="50" as="geometry" />
        </mxCell>
        <mxCell id="H5f7GRGLDmHYRlrWNghL-420" value="&lt;b&gt;C&lt;/b&gt;" style="ellipse;whiteSpace=wrap;html=1;aspect=fixed;" vertex="1" parent="1">
          <mxGeometry x="-2365" y="1587" width="50" height="50" as="geometry" />
        </mxCell>
        <mxCell id="H5f7GRGLDmHYRlrWNghL-456" style="edgeStyle=orthogonalEdgeStyle;rounded=0;orthogonalLoop=1;jettySize=auto;html=1;entryX=0.5;entryY=0;entryDx=0;entryDy=0;" edge="1" parent="1" source="H5f7GRGLDmHYRlrWNghL-458" target="H5f7GRGLDmHYRlrWNghL-460">
          <mxGeometry relative="1" as="geometry" />
        </mxCell>
        <mxCell id="H5f7GRGLDmHYRlrWNghL-457" style="edgeStyle=orthogonalEdgeStyle;rounded=0;orthogonalLoop=1;jettySize=auto;html=1;entryX=0.5;entryY=0;entryDx=0;entryDy=0;" edge="1" parent="1" source="H5f7GRGLDmHYRlrWNghL-458" target="H5f7GRGLDmHYRlrWNghL-462">
          <mxGeometry relative="1" as="geometry" />
        </mxCell>
        <mxCell id="H5f7GRGLDmHYRlrWNghL-458" value="Is user the admin?" style="rhombus;whiteSpace=wrap;html=1;" vertex="1" parent="1">
          <mxGeometry x="-3363.75" y="1053" width="80" height="80" as="geometry" />
        </mxCell>
        <mxCell id="H5f7GRGLDmHYRlrWNghL-459" value="" style="edgeStyle=orthogonalEdgeStyle;rounded=0;orthogonalLoop=1;jettySize=auto;html=1;" edge="1" parent="1" source="H5f7GRGLDmHYRlrWNghL-460" target="H5f7GRGLDmHYRlrWNghL-466">
          <mxGeometry relative="1" as="geometry" />
        </mxCell>
        <mxCell id="H5f7GRGLDmHYRlrWNghL-460" value="Display admin menu" style="shape=parallelogram;perimeter=parallelogramPerimeter;whiteSpace=wrap;html=1;fixedSize=1;" vertex="1" parent="1">
          <mxGeometry x="-3670" y="1154" width="140" height="60" as="geometry" />
        </mxCell>
        <mxCell id="H5f7GRGLDmHYRlrWNghL-461" style="edgeStyle=orthogonalEdgeStyle;rounded=0;orthogonalLoop=1;jettySize=auto;html=1;entryX=0.5;entryY=0;entryDx=0;entryDy=0;" edge="1" parent="1" source="H5f7GRGLDmHYRlrWNghL-462" target="H5f7GRGLDmHYRlrWNghL-470">
          <mxGeometry relative="1" as="geometry" />
        </mxCell>
        <mxCell id="H5f7GRGLDmHYRlrWNghL-462" value="Display non-admin menu" style="shape=parallelogram;perimeter=parallelogramPerimeter;whiteSpace=wrap;html=1;fixedSize=1;" vertex="1" parent="1">
          <mxGeometry x="-3200" y="1154" width="160" height="60" as="geometry" />
        </mxCell>
        <mxCell id="H5f7GRGLDmHYRlrWNghL-463" style="edgeStyle=orthogonalEdgeStyle;rounded=0;orthogonalLoop=1;jettySize=auto;html=1;entryX=0.5;entryY=0;entryDx=0;entryDy=0;" edge="1" parent="1" source="H5f7GRGLDmHYRlrWNghL-466" target="H5f7GRGLDmHYRlrWNghL-472">
          <mxGeometry relative="1" as="geometry" />
        </mxCell>
        <mxCell id="H5f7GRGLDmHYRlrWNghL-464" style="edgeStyle=orthogonalEdgeStyle;rounded=0;orthogonalLoop=1;jettySize=auto;html=1;entryX=0.5;entryY=0;entryDx=0;entryDy=0;" edge="1" parent="1" source="H5f7GRGLDmHYRlrWNghL-466" target="H5f7GRGLDmHYRlrWNghL-474">
          <mxGeometry relative="1" as="geometry" />
        </mxCell>
        <mxCell id="H5f7GRGLDmHYRlrWNghL-465" value="" style="edgeStyle=orthogonalEdgeStyle;rounded=0;orthogonalLoop=1;jettySize=auto;html=1;" edge="1" parent="1">
          <mxGeometry relative="1" as="geometry">
            <mxPoint x="-3600.43" y="1338.166666666667" as="sourcePoint" />
            <mxPoint x="-3600.43" y="1444" as="targetPoint" />
            <Array as="points">
              <mxPoint x="-3600.4300000000003" y="1374" />
              <mxPoint x="-3600.4300000000003" y="1374" />
            </Array>
          </mxGeometry>
        </mxCell>
        <mxCell id="H5f7GRGLDmHYRlrWNghL-466" value="Enter choice" style="rounded=0;whiteSpace=wrap;html=1;shape=rhombus;perimeter=rhombusPerimeter;" vertex="1" parent="1">
          <mxGeometry x="-3660" y="1274" width="120" height="70" as="geometry" />
        </mxCell>
        <mxCell id="H5f7GRGLDmHYRlrWNghL-467" style="edgeStyle=orthogonalEdgeStyle;rounded=0;orthogonalLoop=1;jettySize=auto;html=1;entryX=0.5;entryY=0;entryDx=0;entryDy=0;" edge="1" parent="1" source="H5f7GRGLDmHYRlrWNghL-470" target="H5f7GRGLDmHYRlrWNghL-480">
          <mxGeometry relative="1" as="geometry" />
        </mxCell>
        <mxCell id="H5f7GRGLDmHYRlrWNghL-468" style="edgeStyle=orthogonalEdgeStyle;rounded=0;orthogonalLoop=1;jettySize=auto;html=1;entryX=0.431;entryY=-0.026;entryDx=0;entryDy=0;entryPerimeter=0;" edge="1" parent="1" source="H5f7GRGLDmHYRlrWNghL-470" target="H5f7GRGLDmHYRlrWNghL-482">
          <mxGeometry relative="1" as="geometry">
            <Array as="points">
              <mxPoint x="-3119" y="1374" />
              <mxPoint x="-3119" y="1374" />
            </Array>
          </mxGeometry>
        </mxCell>
        <mxCell id="H5f7GRGLDmHYRlrWNghL-469" style="edgeStyle=orthogonalEdgeStyle;rounded=0;orthogonalLoop=1;jettySize=auto;html=1;entryX=0.5;entryY=0;entryDx=0;entryDy=0;" edge="1" parent="1" source="H5f7GRGLDmHYRlrWNghL-470" target="H5f7GRGLDmHYRlrWNghL-484">
          <mxGeometry relative="1" as="geometry" />
        </mxCell>
        <mxCell id="H5f7GRGLDmHYRlrWNghL-470" value="Enter choice" style="rounded=0;whiteSpace=wrap;html=1;shape=rhombus;perimeter=rhombusPerimeter;" vertex="1" parent="1">
          <mxGeometry x="-3180" y="1284" width="120" height="60" as="geometry" />
        </mxCell>
        <mxCell id="H5f7GRGLDmHYRlrWNghL-471" style="edgeStyle=orthogonalEdgeStyle;rounded=0;orthogonalLoop=1;jettySize=auto;html=1;" edge="1" parent="1" source="H5f7GRGLDmHYRlrWNghL-472">
          <mxGeometry relative="1" as="geometry">
            <mxPoint x="-3900" y="1554" as="targetPoint" />
          </mxGeometry>
        </mxCell>
        <mxCell id="H5f7GRGLDmHYRlrWNghL-472" value="Create Survey" style="rounded=0;whiteSpace=wrap;html=1;" vertex="1" parent="1">
          <mxGeometry x="-3960" y="1444" width="120" height="60" as="geometry" />
        </mxCell>
        <mxCell id="H5f7GRGLDmHYRlrWNghL-473" style="edgeStyle=orthogonalEdgeStyle;rounded=0;orthogonalLoop=1;jettySize=auto;html=1;entryX=0.5;entryY=0;entryDx=0;entryDy=0;" edge="1" parent="1" source="H5f7GRGLDmHYRlrWNghL-474">
          <mxGeometry relative="1" as="geometry">
            <mxPoint x="-3740" y="1554" as="targetPoint" />
          </mxGeometry>
        </mxCell>
        <mxCell id="H5f7GRGLDmHYRlrWNghL-474" value="Take Survey" style="rounded=0;whiteSpace=wrap;html=1;" vertex="1" parent="1">
          <mxGeometry x="-3800" y="1444" width="120" height="60" as="geometry" />
        </mxCell>
        <mxCell id="H5f7GRGLDmHYRlrWNghL-475" style="edgeStyle=orthogonalEdgeStyle;rounded=0;orthogonalLoop=1;jettySize=auto;html=1;entryX=0.5;entryY=0;entryDx=0;entryDy=0;" edge="1" parent="1" source="H5f7GRGLDmHYRlrWNghL-476">
          <mxGeometry relative="1" as="geometry">
            <mxPoint x="-3590" y="1554" as="targetPoint" />
          </mxGeometry>
        </mxCell>
        <mxCell id="H5f7GRGLDmHYRlrWNghL-476" value="View Results" style="rounded=0;whiteSpace=wrap;html=1;" vertex="1" parent="1">
          <mxGeometry x="-3650" y="1444" width="120" height="60" as="geometry" />
        </mxCell>
        <mxCell id="H5f7GRGLDmHYRlrWNghL-477" style="edgeStyle=orthogonalEdgeStyle;rounded=0;orthogonalLoop=1;jettySize=auto;html=1;entryX=0;entryY=0.5;entryDx=0;entryDy=0;exitX=0.5;exitY=1;exitDx=0;exitDy=0;" edge="1" parent="1" source="H5f7GRGLDmHYRlrWNghL-478" target="H5f7GRGLDmHYRlrWNghL-485">
          <mxGeometry relative="1" as="geometry" />
        </mxCell>
        <mxCell id="H5f7GRGLDmHYRlrWNghL-478" value="Exit" style="rounded=0;whiteSpace=wrap;html=1;" vertex="1" parent="1">
          <mxGeometry x="-3500" y="1434" width="120" height="60" as="geometry" />
        </mxCell>
        <mxCell id="H5f7GRGLDmHYRlrWNghL-479" value="" style="edgeStyle=orthogonalEdgeStyle;rounded=0;orthogonalLoop=1;jettySize=auto;html=1;" edge="1" parent="1" source="H5f7GRGLDmHYRlrWNghL-480" target="H5f7GRGLDmHYRlrWNghL-488">
          <mxGeometry relative="1" as="geometry" />
        </mxCell>
        <mxCell id="H5f7GRGLDmHYRlrWNghL-480" value="Take Survey" style="rounded=0;whiteSpace=wrap;html=1;" vertex="1" parent="1">
          <mxGeometry x="-3310" y="1434" width="120" height="60" as="geometry" />
        </mxCell>
        <mxCell id="H5f7GRGLDmHYRlrWNghL-481" value="" style="edgeStyle=orthogonalEdgeStyle;rounded=0;orthogonalLoop=1;jettySize=auto;html=1;" edge="1" parent="1" source="H5f7GRGLDmHYRlrWNghL-482" target="H5f7GRGLDmHYRlrWNghL-489">
          <mxGeometry relative="1" as="geometry" />
        </mxCell>
        <mxCell id="H5f7GRGLDmHYRlrWNghL-482" value="View Results" style="rounded=0;whiteSpace=wrap;html=1;" vertex="1" parent="1">
          <mxGeometry x="-3170" y="1434" width="120" height="60" as="geometry" />
        </mxCell>
        <mxCell id="H5f7GRGLDmHYRlrWNghL-483" style="edgeStyle=orthogonalEdgeStyle;rounded=0;orthogonalLoop=1;jettySize=auto;html=1;entryX=1;entryY=0.5;entryDx=0;entryDy=0;" edge="1" parent="1" source="H5f7GRGLDmHYRlrWNghL-484" target="H5f7GRGLDmHYRlrWNghL-485">
          <mxGeometry relative="1" as="geometry">
            <Array as="points">
              <mxPoint x="-2970" y="1591" />
            </Array>
          </mxGeometry>
        </mxCell>
        <mxCell id="H5f7GRGLDmHYRlrWNghL-484" value="Exit" style="rounded=0;whiteSpace=wrap;html=1;" vertex="1" parent="1">
          <mxGeometry x="-3030" y="1434" width="120" height="60" as="geometry" />
        </mxCell>
        <mxCell id="H5f7GRGLDmHYRlrWNghL-485" value="&lt;b&gt;End&lt;/b&gt;" style="whiteSpace=wrap;strokeWidth=2;rounded=1;glass=0;shadow=0;shape=ellipse;perimeter=ellipsePerimeter;html=1;" vertex="1" parent="1">
          <mxGeometry x="-3370" y="1574" width="50" height="33" as="geometry" />
        </mxCell>
        <mxCell id="H5f7GRGLDmHYRlrWNghL-486" style="edgeStyle=orthogonalEdgeStyle;rounded=0;orthogonalLoop=1;jettySize=auto;html=1;exitX=1;exitY=0.5;exitDx=0;exitDy=0;entryX=0.627;entryY=0.04;entryDx=0;entryDy=0;entryPerimeter=0;" edge="1" parent="1" source="H5f7GRGLDmHYRlrWNghL-466" target="H5f7GRGLDmHYRlrWNghL-478">
          <mxGeometry relative="1" as="geometry" />
        </mxCell>
        <mxCell id="H5f7GRGLDmHYRlrWNghL-487" value="&lt;b&gt;A&lt;/b&gt;" style="ellipse;whiteSpace=wrap;html=1;aspect=fixed;" vertex="1" parent="1">
          <mxGeometry x="-3925" y="1554" width="50" height="50" as="geometry" />
        </mxCell>
        <mxCell id="H5f7GRGLDmHYRlrWNghL-488" value="&lt;b&gt;B&lt;/b&gt;" style="ellipse;whiteSpace=wrap;html=1;aspect=fixed;" vertex="1" parent="1">
          <mxGeometry x="-3275" y="1519" width="50" height="50" as="geometry" />
        </mxCell>
        <mxCell id="H5f7GRGLDmHYRlrWNghL-489" value="&lt;b&gt;C&lt;/b&gt;" style="ellipse;whiteSpace=wrap;html=1;aspect=fixed;" vertex="1" parent="1">
          <mxGeometry x="-3135" y="1519" width="50" height="50" as="geometry" />
        </mxCell>
        <mxCell id="H5f7GRGLDmHYRlrWNghL-490" value="&lt;b&gt;B&lt;/b&gt;" style="ellipse;whiteSpace=wrap;html=1;aspect=fixed;" vertex="1" parent="1">
          <mxGeometry x="-3765" y="1554" width="50" height="50" as="geometry" />
        </mxCell>
        <mxCell id="H5f7GRGLDmHYRlrWNghL-491" value="&lt;b&gt;C&lt;/b&gt;" style="ellipse;whiteSpace=wrap;html=1;aspect=fixed;" vertex="1" parent="1">
          <mxGeometry x="-3615" y="1554" width="50" height="50" as="geometry" />
        </mxCell>
        <mxCell id="H5f7GRGLDmHYRlrWNghL-493" value="Yes" style="text;html=1;align=center;verticalAlign=middle;resizable=0;points=[];autosize=1;strokeColor=none;fillColor=none;fontSize=12;fontFamily=Helvetica;fontColor=default;" vertex="1" parent="1">
          <mxGeometry x="-912.5" y="1124" width="40" height="30" as="geometry" />
        </mxCell>
        <mxCell id="H5f7GRGLDmHYRlrWNghL-494" value="No" style="text;html=1;align=center;verticalAlign=middle;resizable=0;points=[];autosize=1;strokeColor=none;fillColor=none;fontSize=12;fontFamily=Helvetica;fontColor=default;" vertex="1" parent="1">
          <mxGeometry x="-807.4999999999999" y="1124" width="40" height="30" as="geometry" />
        </mxCell>
        <mxCell id="H5f7GRGLDmHYRlrWNghL-495" value="Yes" style="text;html=1;align=center;verticalAlign=middle;resizable=0;points=[];autosize=1;strokeColor=none;fillColor=none;fontSize=12;fontFamily=Helvetica;fontColor=default;" vertex="1" parent="1">
          <mxGeometry x="-2160" y="790" width="40" height="30" as="geometry" />
        </mxCell>
        <mxCell id="H5f7GRGLDmHYRlrWNghL-496" value="Yes" style="text;html=1;align=center;verticalAlign=middle;resizable=0;points=[];autosize=1;strokeColor=none;fillColor=none;fontSize=12;fontFamily=Helvetica;fontColor=default;" vertex="1" parent="1">
          <mxGeometry x="-2090" y="1030" width="40" height="30" as="geometry" />
        </mxCell>
        <mxCell id="H5f7GRGLDmHYRlrWNghL-497" value="No" style="text;html=1;align=center;verticalAlign=middle;resizable=0;points=[];autosize=1;strokeColor=none;fillColor=none;fontSize=12;fontFamily=Helvetica;fontColor=default;" vertex="1" parent="1">
          <mxGeometry x="-2050" y="965" width="40" height="30" as="geometry" />
        </mxCell>
        <mxCell id="H5f7GRGLDmHYRlrWNghL-498" value="No" style="text;html=1;align=center;verticalAlign=middle;resizable=0;points=[];autosize=1;strokeColor=none;fillColor=none;fontSize=12;fontFamily=Helvetica;fontColor=default;" vertex="1" parent="1">
          <mxGeometry x="-2060" y="790" width="40" height="30" as="geometry" />
        </mxCell>
        <mxCell id="H5f7GRGLDmHYRlrWNghL-499" value="Yes" style="text;html=1;align=center;verticalAlign=middle;resizable=0;points=[];autosize=1;strokeColor=none;fillColor=none;fontSize=12;fontFamily=Helvetica;fontColor=default;" vertex="1" parent="1">
          <mxGeometry x="-2160" y="1100" width="40" height="30" as="geometry" />
        </mxCell>
        <mxCell id="H5f7GRGLDmHYRlrWNghL-500" value="No" style="text;html=1;align=center;verticalAlign=middle;resizable=0;points=[];autosize=1;strokeColor=none;fillColor=none;fontSize=12;fontFamily=Helvetica;fontColor=default;" vertex="1" parent="1">
          <mxGeometry x="-2050" y="1100" width="40" height="30" as="geometry" />
        </mxCell>
        <mxCell id="H5f7GRGLDmHYRlrWNghL-563" value="Yes" style="text;html=1;align=center;verticalAlign=middle;resizable=0;points=[];autosize=1;strokeColor=none;fillColor=none;fontSize=12;fontFamily=Helvetica;fontColor=default;" vertex="1" parent="1">
          <mxGeometry x="-3400" y="1060" width="40" height="30" as="geometry" />
        </mxCell>
        <mxCell id="H5f7GRGLDmHYRlrWNghL-564" value="No" style="text;html=1;align=center;verticalAlign=middle;resizable=0;points=[];autosize=1;strokeColor=none;fillColor=none;fontSize=12;fontFamily=Helvetica;fontColor=default;" vertex="1" parent="1">
          <mxGeometry x="-3290" y="1060" width="40" height="30" as="geometry" />
        </mxCell>
      </root>
    </mxGraphModel>
  </diagram>
</mxfile>
